<svg width="214" height="69" viewBox="0 0 214 69" fill="none" xmlns="http://www.w3.org/2000/svg">
<path d="M9.56934 41.8379V68H0.756836V1.17188H25.4043C32.7174 1.17188 38.4395 3.03841 42.5703 6.77148C46.7318 10.5046 48.8125 15.4463 48.8125 21.5967C48.8125 28.0837 46.7777 33.0866 42.708 36.6055C38.6689 40.0938 32.8704 41.8379 25.3125 41.8379H9.56934ZM9.56934 34.6318H25.4043C30.1165 34.6318 33.7272 33.5303 36.2363 31.3271C38.7454 29.0934 40 25.8805 40 21.6885C40 17.7106 38.7454 14.5283 36.2363 12.1416C33.7272 9.75488 30.2848 8.51562 25.9092 8.42383H9.56934V34.6318ZM68.916 60.7939H100.586V68H60.0576V1.17188H68.916V60.7939ZM155.205 1.17188V46.6113C155.174 52.9147 153.186 58.0706 149.238 62.0791C145.322 66.0876 139.997 68.3366 133.266 68.8262L130.925 68.918C123.612 68.918 117.783 66.9443 113.438 62.9971C109.092 59.0498 106.889 53.6185 106.828 46.7031V1.17188H115.549V46.4277C115.549 51.2624 116.88 55.026 119.542 57.7188C122.204 60.3809 125.998 61.7119 130.925 61.7119C135.912 61.7119 139.722 60.3809 142.354 57.7188C145.016 55.0566 146.347 51.3083 146.347 46.4736V1.17188H155.205ZM188.803 38.2119C181.245 36.0394 175.737 33.3773 172.279 30.2256C168.852 27.0433 167.139 23.1266 167.139 18.4756C167.139 13.2126 169.235 8.86751 173.427 5.44043C177.649 1.98275 183.127 0.253906 189.858 0.253906C194.448 0.253906 198.533 1.14128 202.113 2.91602C205.724 4.69076 208.508 7.13867 210.467 10.2598C212.456 13.3809 213.45 16.7926 213.45 20.4951H204.592C204.592 16.4561 203.307 13.2891 200.736 10.9941C198.166 8.66862 194.54 7.50586 189.858 7.50586C185.513 7.50586 182.117 8.46973 179.669 10.3975C177.252 12.2946 176.043 14.9414 176.043 18.3379C176.043 21.0612 177.19 23.3714 179.485 25.2686C181.811 27.1351 185.743 28.8486 191.281 30.4092C196.85 31.9697 201.195 33.6986 204.316 35.5957C207.468 37.4622 209.794 39.6501 211.293 42.1592C212.823 44.6683 213.588 47.6211 213.588 51.0176C213.588 56.4336 211.477 60.7786 207.254 64.0527C203.031 67.2962 197.386 68.918 190.317 68.918C185.728 68.918 181.444 68.0459 177.466 66.3018C173.488 64.527 170.413 62.1097 168.24 59.0498C166.098 55.9899 165.027 52.5169 165.027 48.6309H173.886C173.886 52.6699 175.37 55.8675 178.338 58.2236C181.337 60.5492 185.33 61.7119 190.317 61.7119C194.968 61.7119 198.533 60.7633 201.012 58.8662C203.49 56.9691 204.729 54.3835 204.729 51.1094C204.729 47.8353 203.582 45.3109 201.287 43.5361C198.992 41.7308 194.831 39.9561 188.803 38.2119Z" fill="white"/>
</svg>
