<svg xmlns="http://www.w3.org/2000/svg" xmlns:xlink="http://www.w3.org/1999/xlink" viewBox="0 0 512 640" version="1.1" xml:space="preserve" x="0px" y="0px"><g><path d="M 295.5054 45.2933 C 384.5 132.5 383.7393 242.0399 383.7393 256 C 383.7393 256 392.5 367.5 295.575 466.756 C 292.6649 469.7361 290.415 473.3698 290.415 477.7188 C 290.415 485.8823 297.4274 492.5 306.0779 492.5 C 311.4098 492.5 319.165 486.3247 319.165 486.3247 C 424.5 379.5 415.5 256 415.5 256 C 415.5 114.4501 319.9387 25.8477 319.9387 25.8477 C 317.1094 22.011 311.4065 19.5 306.0779 19.5 C 297.4274 19.5 290.415 26.1177 290.415 34.2813 C 290.415 38.6281 292.4013 42.5394 295.5663 45.244 L 295.5054 45.2933 ZM 228.4337 104.9603 C 296.4735 173 291.9378 255.1654 291.9378 255.1654 C 291.9378 327 258.9951 375.9487 228.1814 407.2368 C 224.737 409.9482 222.5428 414.0298 222.5428 418.5938 C 222.5428 426.7573 229.5552 433.375 238.2056 433.375 C 242.7326 433.375 246.8148 431.5593 249.6743 428.6614 C 249.6743 428.6614 323.6985 364.3333 323.6985 256.3971 C 323.6985 146 249.6656 83.3303 249.6656 83.3303 C 246.8065 80.4367 242.7288 78.625 238.2056 78.625 C 229.5552 78.625 222.5428 85.2427 222.5428 93.4063 C 222.5428 98.0809 224.8442 102.2517 228.4337 104.9603 ZM 203.1819 256.2053 C 203.1819 294.7394 186.2763 329.1559 159.3347 353.7123 L 159.5435 353.8847 C 157.5772 356.3551 156.4109 359.4258 156.4109 362.7535 C 156.4109 370.917 163.4233 377.5347 172.0738 377.5347 C 176.3229 377.5347 180.1812 375.9391 183.0029 373.3467 L 183.1683 373.4863 C 215.0849 343.4695 234.9426 301.9354 234.9426 255.7947 C 234.9426 209.8694 215.0897 168.4447 183.1856 138.4808 L 182.9855 138.6451 C 180.1647 136.0584 176.3176 134.4653 172.0738 134.4653 C 163.4233 134.4653 156.4109 141.083 156.4109 149.2465 C 156.4109 152.5703 157.5726 155.6381 159.5348 158.107 L 159.3869 158.2302 C 186.5184 183.1012 203.1819 217.9306 203.1819 256.2053 ZM 123.1275 256.2053 C 123.1275 296.3333 95.5 297.1667 95.5 311.8403 C 95.5 320.0038 102.5124 326.6215 111.1628 326.6215 C 115.3044 326.6215 122.588 323.2218 122.588 323.2218 C 142.2 306.7251 154.8882 282.8626 154.8882 256.2053 C 154.8882 229.8492 142.4852 205.5206 122.6575 188.7042 C 122.6575 188.7042 109.1219 177.7809 99.1667 190.8333 C 91.6667 200.6667 100 209.9658 104.6366 214.6024 C 115.6038 225.5696 123.1275 240.0926 123.1275 256.2053 Z" fill="#000000"/></g><text x="0" y="527" fill="#000000" font-size="5px" font-weight="bold" font-family="'Helvetica Neue', Helvetica, Arial-Unicode, Arial, Sans-serif">Created by Roberto Chiaveri</text><text x="0" y="532" fill="#000000" font-size="5px" font-weight="bold" font-family="'Helvetica Neue', Helvetica, Arial-Unicode, Arial, Sans-serif">from the Noun Project</text></svg>