<?xml version="1.0" encoding="UTF-8" standalone="no"?>
<svg
   xmlns:dc="http://purl.org/dc/elements/1.1/"
   xmlns:cc="http://creativecommons.org/ns#"
   xmlns:rdf="http://www.w3.org/1999/02/22-rdf-syntax-ns#"
   xmlns:svg="http://www.w3.org/2000/svg"
   xmlns="http://www.w3.org/2000/svg"
   version="1.1"
   id="svg2"
   xml:space="preserve"
   width="780.1333"
   height="621.54669"
   viewBox="0 0 780.1333 621.54669"><metadata
     id="metadata8"><rdf:RDF><cc:Work
         rdf:about=""><dc:format>image/svg+xml</dc:format><dc:type
           rdf:resource="http://purl.org/dc/dcmitype/StillImage" /><dc:title></dc:title></cc:Work></rdf:RDF></metadata><defs
     id="defs6" /><g
     id="g10"
     transform="matrix(1.3333333,0,0,-1.3333333,0,621.54667)"><g
       id="g12"
       transform="scale(0.1)"><path
         d="M 5569.27,3217.57 H 1156.44 c -152.58,0 -276.733,-124.18 -276.733,-276.78 V 281.742 C 879.707,129.102 1003.86,5 1156.44,5 h 4412.83 c 152.56,0 276.72,124.102 276.72,276.742 V 2940.79 c 0,152.6 -124.16,276.78 -276.72,276.78"
         style="fill:#fbc61a;fill-opacity:1;fill-rule:nonzero;stroke:none"
         id="path14" /><path
         d="M 5569.27,3217.57 H 1156.44 c -152.58,0 -276.733,-124.18 -276.733,-276.78 V 281.742 C 879.707,129.102 1003.86,5 1156.44,5 h 4412.83 c 152.56,0 276.72,124.102 276.72,276.742 V 2940.79 c 0,152.6 -124.16,276.78 -276.72,276.78 z"
         style="fill:none;stroke:#fbc61a;stroke-width:10;stroke-linecap:butt;stroke-linejoin:miter;stroke-miterlimit:10;stroke-dasharray:none;stroke-opacity:1"
         id="path16" /><path
         d="M 5845.99,281.742 V 2940.79 c 0,152.6 -124.16,276.78 -276.72,276.78 H 4491.52 C 4653.63,2713.91 4762.65,1649.94 4137.94,871.191 3740.03,375.75 3120.99,86.1797 2291.37,5 h 237.33 c 720.96,110.648 1267.45,393.992 1631.96,847.93 552.75,688.54 539.53,1594.19 418.07,2151.5 C 4721.81,2476.96 4790.07,1567.37 4280.99,848.582 4005.48,460.02 3602.72,178.539 3076.82,5 h 146.08 c 472.41,178.949 839.57,450.922 1097.86,815.34 255.58,360.66 397.99,816.42 411.36,1316.91 5.06,185.73 -7.4,355.54 -28.08,504.55 99.18,-517.83 94.2,-1207.69 -278.58,-1806.601 C 4206.85,484.051 3890.11,207.07 3478.49,5 h 148.9 c 366.08,201.332 651.99,466.27 856.04,794.059 311.35,500.121 373.42,1061.491 331.45,1539.341 63.04,-458.58 29.45,-1002.53 -243.91,-1506.931 C 4390.86,499.461 4128.1,223.711 3784.08,5 h 157.4 c 302.97,213.969 539.16,475.629 706.72,784.629 183.36,338.381 262.71,693.391 278.03,1031.141 -1.08,-324.67 -60.04,-662.82 -209.65,-983.231 C 4565.7,514.48 4339.87,236.68 4040.95,5 h 166.37 c 263.85,225.648 467.36,489.121 606.6,787.109 C 4888.2,951.27 4944,1121.02 4980.99,1298.32 4955.35,1150.3 4915.15,1001.69 4857.22,855.281 4730.76,536.059 4529.78,251.082 4258.35,5 h 197.9 c 233.69,236.102 410.56,503.66 527.67,799.281 C 4876.58,512.09 4708.51,244.441 4481.97,5 h 1087.3 c 152.56,0 276.72,124.102 276.72,276.742"
         style="fill:#fae264;fill-opacity:1;fill-rule:nonzero;stroke:none"
         id="path18" /><path
         d="m 4427.26,3220.61 -3.8,-0.54 c 0.11,-0.78 0.19,-1.64 0.3,-2.5 h 3.93 c -0.14,1 -0.33,2.05 -0.43,3.04"
         style="fill:#f9e74f;fill-opacity:1;fill-rule:nonzero;stroke:none"
         id="path20" /><path
         d="m 4457.69,3222.65 -9.57,-1.87 c 0.21,-1.02 0.49,-2.14 0.72,-3.21 h 9.89 c -0.4,1.7 -0.77,3.47 -1.04,5.08"
         style="fill:#f9e74f;fill-opacity:1;fill-rule:nonzero;stroke:none"
         id="path22" /><path
         d="m 4486.11,3222.65 -15.14,-3.89 c 0,-0.36 0.12,-0.83 0.2,-1.19 h 16.23 c -0.45,1.64 -0.86,3.47 -1.29,5.08"
         style="fill:#f9e74f;fill-opacity:1;fill-rule:nonzero;stroke:none"
         id="path24" /><path
         d="m 3716.17,1003.16 c 664.39,576.85 797.07,1562.81 711.52,2214.41 h -3.93 C 4509.23,2566.97 4377.08,1582.06 3713.65,1006.02 3094.41,469.09 2141.9,354.32 879.707,663.789 V 659.75 C 2142.69,350.219 3096.11,465.391 3716.17,1003.16"
         style="fill:#f9e74f;fill-opacity:1;fill-rule:nonzero;stroke:none"
         id="path26" /><path
         d="m 3859.07,944.102 c 304.87,298.188 505.61,693.398 596.73,1173.428 94.74,500.07 34,937.62 2.93,1100.04 h -9.89 c 30.79,-160.37 92.19,-597.87 -2.71,-1098.19 C 4355.46,1641.32 4155.72,1247.85 3852.22,951.039 3235.72,348.031 2235.83,182.93 879.707,459.531 V 449.52 C 2238.24,172.871 3240.25,338.949 3859.07,944.102"
         style="fill:#f9e74f;fill-opacity:1;fill-rule:nonzero;stroke:none"
         id="path28" /><path
         d="m 4006.53,894.672 c 660.55,729.268 612.55,1804.558 480.87,2322.898 h -16.23 C 4602.96,2703.74 4652.67,1631.29 3994.8,905.121 3394.9,243.34 2370.38,19.2617 950.305,239.32 l -68.7,11 c 0.575,-5.609 1.575,-11.199 2.551,-16.699 l 63.727,-9.812 C 2373.49,3.01172 3402.79,228.75 4006.53,894.672"
         style="fill:#f9e74f;fill-opacity:1;fill-rule:nonzero;stroke:none"
         id="path30" /><path
         d="m 2514.18,1341.86 4.45,1.35 c 0.13,0.21 0.26,0.47 0.26,0.72 0,0.04 0,0.04 0,0.08 -311.2,241.41 -569.02,572.5 -772.64,990.74 l -4.18,-1.86 c 203.57,-418.07 461.18,-749.33 772.11,-991.03"
         style="fill:#f9eb66;fill-opacity:1;fill-rule:nonzero;stroke:none"
         id="path32" /><path
         d="m 2514.18,1341.86 4.45,1.35 c 0.13,0.21 0.26,0.47 0.26,0.72 0,0.04 0,0.04 0,0.08 -311.2,241.41 -569.02,572.5 -772.64,990.74 l -4.18,-1.86 c 203.57,-418.07 461.18,-749.33 772.11,-991.03 z"
         style="fill:none;stroke:#f9eb66;stroke-width:2.5;stroke-linecap:butt;stroke-linejoin:miter;stroke-miterlimit:10;stroke-dasharray:none;stroke-opacity:1"
         id="path34" /><path
         d="m 1876.55,1373.89 c 109.18,-48.12 219.25,-86.63 329.13,-117.39 3.98,0.97 7.9,1.94 11.82,2.9 0.26,0.24 0.42,0.57 0.42,0.96 -0.03,0.4 -0.25,0.76 -0.55,0.96 -112.73,31.1 -225.71,70.32 -337.7,119.75 -366.36,161.5 -684.78,410.22 -953.924,743.45 l -6.062,-4.91 c 269.896,-334.19 589.356,-583.63 956.866,-745.72"
         style="fill:#fbf18d;fill-opacity:1;fill-rule:nonzero;stroke:none"
         id="path36" /><path
         d="m 1876.55,1373.89 c 109.18,-48.12 219.25,-86.63 329.13,-117.39 3.98,0.97 7.9,1.94 11.82,2.9 0.26,0.24 0.42,0.57 0.42,0.96 -0.03,0.4 -0.25,0.76 -0.55,0.96 -112.73,31.1 -225.71,70.32 -337.7,119.75 -366.36,161.5 -684.78,410.22 -953.924,743.45 l -6.062,-4.91 c 269.896,-334.19 589.356,-583.63 956.866,-745.72 z"
         style="fill:none;stroke:#fcec96;stroke-width:2.5;stroke-linecap:butt;stroke-linejoin:miter;stroke-miterlimit:10;stroke-dasharray:none;stroke-opacity:1"
         id="path38" /><path
         d="m 2437.5,1319.1 c 1.74,0.47 3.44,0.98 5.18,1.49 0.22,0.18 0.4,0.56 0.4,0.91 0,0.17 -0.09,0.36 -0.18,0.52 -0.35,0.22 -0.7,0.49 -1.09,0.7 -426.66,265 -768.41,676.24 -1023.05,1228.44 l -4.79,-2.38 C 1668.7,1996.31 2010.65,1584.68 2437.5,1319.1"
         style="fill:#faed70;fill-opacity:1;fill-rule:nonzero;stroke:none"
         id="path40" /><path
         d="m 2437.5,1319.1 c 1.74,0.47 3.44,0.98 5.18,1.49 0.22,0.18 0.4,0.56 0.4,0.91 0,0.17 -0.09,0.36 -0.18,0.52 -0.35,0.22 -0.7,0.49 -1.09,0.7 -426.66,265 -768.41,676.24 -1023.05,1228.44 l -4.79,-2.38 C 1668.7,1996.31 2010.65,1584.68 2437.5,1319.1 Z"
         style="fill:none;stroke:#faed70;stroke-width:2.5;stroke-linecap:butt;stroke-linejoin:miter;stroke-miterlimit:10;stroke-dasharray:none;stroke-opacity:1"
         id="path42" /><path
         d="m 2073,1367.66 c 69.85,-34.46 140.01,-64.65 210.2,-91.14 2.88,0.8 5.76,1.54 8.62,2.31 0.32,0.27 0.54,0.62 0.54,1.08 -0.05,0.37 -0.22,0.67 -0.54,0.88 -0.21,0.08 -0.42,0.14 -0.59,0.22 -0.1,0 -0.13,0.05 -0.18,0.05 v 0.05 c -71.82,26.87 -143.61,57.62 -214.99,92.86 -474.2,234.28 -861.27,624.51 -1157.607,1165 l -6.23,-3.22 C 1209.31,1993.82 1597.41,1602.63 2073,1367.66"
         style="fill:#fcec96;fill-opacity:1;fill-rule:nonzero;stroke:none"
         id="path44" /><path
         d="m 2073,1367.66 c 69.85,-34.46 140.01,-64.65 210.2,-91.14 2.88,0.8 5.76,1.54 8.62,2.31 0.32,0.27 0.54,0.62 0.54,1.08 -0.05,0.37 -0.22,0.67 -0.54,0.88 -0.21,0.08 -0.42,0.14 -0.59,0.22 -0.1,0 -0.13,0.05 -0.18,0.05 v 0.05 c -71.82,26.87 -143.61,57.62 -214.99,92.86 -474.2,234.28 -861.27,624.51 -1157.607,1165 l -6.23,-3.22 C 1209.31,1993.82 1597.41,1602.63 2073,1367.66 Z"
         style="fill:none;stroke:#fcec96;stroke-width:2.5;stroke-linecap:butt;stroke-linejoin:miter;stroke-miterlimit:10;stroke-dasharray:none;stroke-opacity:1"
         id="path46" /><path
         d="m 2263.07,1347.95 c 32.47,-17.93 65.06,-34.76 97.6,-50.68 2.27,0.64 4.5,1.2 6.71,1.79 0.31,0.26 0.53,0.67 0.53,1.04 0,0.29 -0.14,0.53 -0.31,0.69 -0.31,0.2 -0.6,0.36 -0.95,0.49 l -0.04,0.04 c -33.6,16.38 -67.15,33.6 -100.61,52.08 -451.57,249.42 -816.88,650.36 -1092.81,1197.59 l -5.75,-2.47 c 276.55,-548.59 642.79,-950.57 1095.63,-1200.57"
         style="fill:#fcec96;fill-opacity:1;fill-rule:nonzero;stroke:none"
         id="path48" /><path
         d="m 2263.07,1347.95 c 32.47,-17.93 65.06,-34.76 97.6,-50.68 2.27,0.64 4.5,1.2 6.71,1.79 0.31,0.26 0.53,0.67 0.53,1.04 0,0.29 -0.14,0.53 -0.31,0.69 -0.31,0.2 -0.6,0.36 -0.95,0.49 l -0.04,0.04 c -33.6,16.38 -67.15,33.6 -100.61,52.08 -451.57,249.42 -816.88,650.36 -1092.81,1197.59 l -5.75,-2.47 c 276.55,-548.59 642.79,-950.57 1095.63,-1200.57 z"
         style="fill:none;stroke:#fcec96;stroke-width:2.5;stroke-linecap:butt;stroke-linejoin:miter;stroke-miterlimit:10;stroke-dasharray:none;stroke-opacity:1"
         id="path50" /><path
         d="m 2590.61,1365.1 0.3,-0.25 4.15,1.35 c -241.01,233.78 -446.46,533.94 -610.33,893.72 -0.78,0.33 -4.36,-1.07 -4.36,-1.07 l -0.6,-0.24 0.26,-0.62 c 163.91,-359.85 369.36,-660.25 610.58,-892.89"
         style="fill:#f9e13a;fill-opacity:1;fill-rule:nonzero;stroke:none"
         id="path52" /><path
         d="m 2590.61,1365.1 0.3,-0.25 4.15,1.35 c -241.01,233.78 -446.46,533.94 -610.33,893.72 -0.78,0.33 -4.36,-1.07 -4.36,-1.07 l -0.6,-0.24 0.26,-0.62 c 163.91,-359.85 369.36,-660.25 610.58,-892.89 z"
         style="fill:none;stroke:#f9e13a;stroke-width:2.5;stroke-linecap:butt;stroke-linejoin:miter;stroke-miterlimit:10;stroke-dasharray:none;stroke-opacity:1"
         id="path54" /><path
         d="m 2667.38,1389.73 c 1.04,-0.28 4.19,0.76 4.19,0.76 -187.8,226.03 -349.36,500.9 -479.73,818.53 -1.23,0.51 -4.11,-0.62 -4.11,-0.62 l -0.87,-0.37 0.36,-0.87 c 130.36,-317.63 291.93,-592.64 480.16,-817.43"
         style="fill:#f9e13a;fill-opacity:1;fill-rule:nonzero;stroke:none"
         id="path56" /><path
         d="m 2667.38,1389.73 c 1.04,-0.28 4.19,0.76 4.19,0.76 -187.8,226.03 -349.36,500.9 -479.73,818.53 -1.23,0.51 -4.11,-0.62 -4.11,-0.62 l -0.87,-0.37 0.36,-0.87 c 130.36,-317.63 291.93,-592.64 480.16,-817.43 z"
         style="fill:none;stroke:#f9e13a;stroke-width:2.5;stroke-linecap:butt;stroke-linejoin:miter;stroke-miterlimit:10;stroke-dasharray:none;stroke-opacity:1"
         id="path58" /><path
         d="m 4559.37,1957.41 -0.15,0.24 36.68,21.5 c 240.63,139.56 471.03,293.54 690.08,460.9 l -6.89,8.59 C 5060.47,2281.6 4830.55,2127.88 4590.44,1988.65 l -37.07,-21.71 0.18,-0.18 c -14.38,-8.75 -960.96,-577.38 -2105.25,-736.25 -13.15,-2.22 -25.84,-4.33 -37.61,-6.15 l -56.73,-7.45 -26.61,-4.48 c -0.69,0 -1.23,-0.61 -1.2,-1.25 0,-0.58 0.41,-1.01 0.94,-1.15 12.33,-0.4 24.83,-0.84 37.64,-1.24 l 9.24,0.84 c 9.14,1.14 18.26,2.34 27.4,3.51 l 95.38,13.18 c 1126.42,168.08 2049.63,723.19 2062.62,731.09"
         style="fill:#fcec96;fill-opacity:1;fill-rule:nonzero;stroke:none"
         id="path60" /><path
         d="m 4559.37,1957.41 -0.15,0.24 36.68,21.5 c 240.63,139.56 471.03,293.54 690.08,460.9 l -6.89,8.59 C 5060.47,2281.6 4830.55,2127.88 4590.44,1988.65 l -37.07,-21.71 0.18,-0.18 c -14.38,-8.75 -960.96,-577.38 -2105.25,-736.25 -13.15,-2.22 -25.84,-4.33 -37.61,-6.15 l -56.73,-7.45 -26.61,-4.48 c -0.69,0 -1.23,-0.61 -1.2,-1.25 0,-0.58 0.41,-1.01 0.94,-1.15 12.33,-0.4 24.83,-0.84 37.64,-1.24 l 9.24,0.84 c 9.14,1.14 18.26,2.34 27.4,3.51 l 95.38,13.18 c 1126.42,168.08 2049.63,723.19 2062.62,731.09 z"
         style="fill:none;stroke:#fcec96;stroke-width:2.5;stroke-linecap:butt;stroke-linejoin:miter;stroke-miterlimit:10;stroke-dasharray:none;stroke-opacity:1"
         id="path62" /><path
         d="m 4567.39,2162.74 -7.03,10.43 c -261.14,-161.15 -1114.28,-654.9 -2130.31,-900.48 -48.98,-11.87 -97.56,-22.64 -145.93,-32.95 -27.98,-6.52 -53.33,-12.36 -70.2,-15.86 l -32.46,-7.2 -0.04,-0.03 c -0.64,0 -1.22,-0.59 -1.22,-1.25 0,-0.68 0.58,-1.23 1.26,-1.23 v -0.03 c 7.28,-0.17 15,-0.41 22.57,-0.57 l 34.65,6.13 c 65.47,13.25 182.13,37.95 224.57,48.37 1004.77,248.47 1845.32,734.99 2104.14,894.67"
         style="fill:#fcf39c;fill-opacity:1;fill-rule:nonzero;stroke:none"
         id="path64" /><path
         d="m 4604.54,2086.14 -0.2,0.23 4.74,2.84 c 90.13,54.92 234.38,145.87 409.02,266.8 l -6.7,9.7 C 4837.03,2244.98 4692.96,2154.12 4602.93,2099.3 l -4.84,-2.97 1.17,-1.98 -1.09,1.73 c -14,-8.92 -1017.5,-642.3 -2235.27,-859.28 l -56.26,-11.51 -49.14,-10.88 c -0.4,-0.24 -0.66,-0.64 -0.66,-1.07 0,-0.63 0.48,-1.13 1.06,-1.19 4.57,-0.16 9.26,-0.27 13.89,-0.42 l 41.96,5.51 228.89,42.76 c 1138.73,243.36 2048.54,817.64 2061.9,826.14"
         style="fill:#fbf18d;fill-opacity:1;fill-rule:nonzero;stroke:none"
         id="path66" /><path
         d="m 2354.26,1268.34 35.35,9.02 c 720.98,202.06 1360.72,514.49 1782.26,749.06 l -6.92,11.46 c -421.46,-234.46 -1061.29,-546.94 -1782.18,-748.55 -94.3,-26.36 -187.45,-49.87 -279.79,-71.13 v -0.04 c -0.69,0 -1.21,-0.58 -1.21,-1.3 0,-0.45 0.26,-0.85 0.65,-1.03 7.62,-0.18 15.59,-0.31 23.83,-0.45 31.89,6.07 76.39,15.02 115.96,24.58 l 112.05,28.38"
         style="fill:#fbf18d;fill-opacity:1;fill-rule:nonzero;stroke:none"
         id="path68" /><path
         d="m 2751.17,1418.49 c -143.96,216.31 -268.92,471.33 -371.36,757.96 l -4.27,-1.43 c 102.35,-286.85 227.31,-542.1 371.36,-758.73 l 4.27,2.2"
         style="fill:#f9e13a;fill-opacity:1;fill-rule:nonzero;stroke:none"
         id="path70" /><path
         d="m 2751.17,1418.49 c -143.96,216.31 -268.92,471.33 -371.36,757.96 l -4.27,-1.43 c 102.35,-286.85 227.31,-542.1 371.36,-758.73 z"
         style="fill:none;stroke:#f9e13a;stroke-width:2.5;stroke-linecap:butt;stroke-linejoin:miter;stroke-miterlimit:10;stroke-dasharray:none;stroke-opacity:1"
         id="path72" /><path
         d="m 4067.47,544.988 -4.51,0.563 c -4.04,-0.192 -402.79,0.851 -848.38,357.82 l -3.32,-3.32 2.29,-2.449 c 444.19,-354.813 845.41,-356.973 849.41,-356.973 l -1.25,3.121 c 0.42,-2.629 4.22,-3.391 4.99,-3.52 114.57,-16.601 532.38,-32.988 1099.87,454.11 l -3.02,3.57 C 4597.47,512.031 4181.5,528.391 4067.47,544.988"
         style="fill:#fbd219;fill-opacity:1;fill-rule:nonzero;stroke:none"
         id="path74" /><path
         d="m 4067.47,544.988 -4.51,0.563 c -4.04,-0.192 -402.79,0.851 -848.38,357.82 l -3.32,-3.32 2.29,-2.449 c 444.19,-354.813 845.41,-356.973 849.41,-356.973 l -1.25,3.121 c 0.42,-2.629 4.22,-3.391 4.99,-3.52 114.57,-16.601 532.38,-32.988 1099.87,454.11 l -3.02,3.57 C 4597.47,512.031 4181.5,528.391 4067.47,544.988 Z"
         style="fill:none;stroke:#fbd219;stroke-width:2.5;stroke-linecap:butt;stroke-linejoin:miter;stroke-miterlimit:4;stroke-dasharray:none;stroke-opacity:1"
         id="path76" /><path
         d="m 4241.83,1061.9 0.24,-1.85 -0.46,1.59 c -7.28,-2.25 -593.79,-177.249 -1271.21,24.26 -0.39,-0.04 -0.74,-0.23 -0.97,-0.58 -0.21,-0.39 -0.21,-0.83 0,-1.16 5.89,-2.95 11.73,-5.85 17.57,-8.85 671.41,-193.54 1248.96,-21.08 1256.24,-18.82 l -0.02,0.13 c 20,3.02 670.54,110.09 1426.01,960.72 l -4.15,3.5 C 4904.09,1164.02 4250.11,1063.03 4241.83,1061.9"
         style="fill:#fade32;fill-opacity:1;fill-rule:nonzero;stroke:none"
         id="path78" /><path
         d="m 4241.83,1061.9 0.24,-1.85 -0.46,1.59 c -7.28,-2.25 -593.79,-177.249 -1271.21,24.26 -0.39,-0.04 -0.74,-0.23 -0.97,-0.58 -0.21,-0.39 -0.21,-0.83 0,-1.16 5.89,-2.95 11.73,-5.85 17.57,-8.85 671.41,-193.54 1248.96,-21.08 1256.24,-18.82 l -0.02,0.13 c 20,3.02 670.54,110.09 1426.01,960.72 l -4.15,3.5 C 4904.09,1164.02 4250.11,1063.03 4241.83,1061.9 Z"
         style="fill:none;stroke:#fade32;stroke-width:2.5;stroke-linecap:butt;stroke-linejoin:miter;stroke-miterlimit:10;stroke-dasharray:none;stroke-opacity:1"
         id="path80" /><path
         d="m 2125.77,1237.06 c 5.16,1.22 10.33,2.48 15.52,3.78 0.3,0.27 0.48,0.64 0.43,1.04 -0.04,0.45 -0.31,0.76 -0.62,0.94 -154.28,29.44 -309.32,72.47 -462.64,132.53 -274.6,107.51 -524.37,261.2 -748.753,459.44 l -5.625,-6.52 c 225.128,-198.95 475.768,-353.05 751.288,-460.94 149.27,-58.47 300.17,-100.8 450.4,-130.27"
         style="fill:#fcf39c;fill-opacity:1;fill-rule:nonzero;stroke:none"
         id="path82" /><path
         d="m 2125.77,1237.06 c 5.16,1.22 10.33,2.48 15.52,3.78 0.3,0.27 0.48,0.64 0.43,1.04 -0.04,0.45 -0.31,0.76 -0.62,0.94 -154.28,29.44 -309.32,72.47 -462.64,132.53 -274.6,107.51 -524.37,261.2 -748.753,459.44 l -5.625,-6.52 c 225.128,-198.95 475.768,-353.05 751.288,-460.94 149.27,-58.47 300.17,-100.8 450.4,-130.27 z"
         style="fill:none;stroke:#fcec96;stroke-width:2.5;stroke-linecap:butt;stroke-linejoin:miter;stroke-miterlimit:10;stroke-dasharray:none;stroke-opacity:1"
         id="path84" /><path
         d="M 5548.32,1647.24 C 5326.03,1408.88 5094.94,1215.52 4860.58,1072.52 4446.38,819.648 4155.24,803.898 4152.35,803.781 4147.4,802.711 3662.06,723.109 3111.31,999.18 l -1.99,-2.7 5.52,-4.421 c 552.49,-274.661 1033.49,-194.297 1038.26,-193.5 11.96,0.8 299.24,18.882 709.82,269.391 234.83,143.32 466.38,337.04 688.37,575.92 -0.04,0.89 -2.97,3.37 -2.97,3.37"
         style="fill:#fada24;fill-opacity:1;fill-rule:nonzero;stroke:none"
         id="path86" /><path
         d="M 5548.32,1647.24 C 5326.03,1408.88 5094.94,1215.52 4860.58,1072.52 4446.38,819.648 4155.24,803.898 4152.35,803.781 4147.4,802.711 3662.06,723.109 3111.31,999.18 l -1.99,-2.7 5.52,-4.421 c 552.49,-274.661 1033.49,-194.297 1038.26,-193.5 11.96,0.8 299.24,18.882 709.82,269.391 234.83,143.32 466.38,337.04 688.37,575.92 -0.04,0.89 -2.97,3.37 -2.97,3.37 z"
         style="fill:none;stroke:#fada24;stroke-width:2.5;stroke-linecap:butt;stroke-linejoin:miter;stroke-miterlimit:10;stroke-dasharray:none;stroke-opacity:1"
         id="path88" /><path
         d="m 4330.98,1320.64 0.69,-2.45 -0.84,2.13 c -9.02,-3.7 -700.49,-284.71 -1509.87,-171.9 l -17.4,1.56 c -0.35,-0.12 -0.64,-0.37 -0.78,-0.74 -0.17,-0.42 -0.05,-0.82 0.2,-1.18 8.17,-2.46 16.26,-5.08 24.38,-7.65 808.29,-110.32 1497.17,169.76 1506.16,173.45 l -0.09,0.13 c 19.61,5.72 689.07,205.77 1424.97,1031.7 l -5.34,4.55 C 5012.13,1518.77 4339.1,1322.89 4330.98,1320.64"
         style="fill:#f9e13a;fill-opacity:1;fill-rule:nonzero;stroke:none"
         id="path90" /><path
         d="m 4330.98,1320.64 0.69,-2.45 -0.84,2.13 c -9.02,-3.7 -700.49,-284.71 -1509.87,-171.9 l -17.4,1.56 c -0.35,-0.12 -0.64,-0.37 -0.78,-0.74 -0.17,-0.42 -0.05,-0.82 0.2,-1.18 8.17,-2.46 16.26,-5.08 24.38,-7.65 808.29,-110.32 1497.17,169.76 1506.16,173.45 l -0.09,0.13 c 19.61,5.72 689.07,205.77 1424.97,1031.7 l -5.34,4.55 C 5012.13,1518.77 4339.1,1322.89 4330.98,1320.64 Z"
         style="fill:none;stroke:#f9e13a;stroke-width:2.5;stroke-linecap:butt;stroke-linejoin:miter;stroke-miterlimit:10;stroke-dasharray:none;stroke-opacity:1"
         id="path92" /><path
         d="m 4286.38,1191.25 0.52,-2.14 -0.69,1.87 c -8.14,-2.99 -652.57,-232.019 -1399.69,-69.05 -0.39,-0.04 -0.74,-0.26 -0.95,-0.6 -0.18,-0.42 -0.18,-0.8 0,-1.14 8.06,-3 16.03,-6.05 23.96,-9.32 738.59,-153.198 1370.74,71.36 1378.85,74.29 l -0.09,0.13 c 17.76,4.38 679.39,174.65 1404.56,974.6 l -4.74,4 C 4959.04,1359.67 4294.74,1193.22 4286.38,1191.25"
         style="fill:#f9e13a;fill-opacity:1;fill-rule:nonzero;stroke:none"
         id="path94" /><path
         d="m 4286.38,1191.25 0.52,-2.14 -0.69,1.87 c -8.14,-2.99 -652.57,-232.019 -1399.69,-69.05 -0.39,-0.04 -0.74,-0.26 -0.95,-0.6 -0.18,-0.42 -0.18,-0.8 0,-1.14 8.06,-3 16.03,-6.05 23.96,-9.32 738.59,-153.198 1370.74,71.36 1378.85,74.29 l -0.09,0.13 c 17.76,4.38 679.39,174.65 1404.56,974.6 l -4.74,4 C 4959.04,1359.67 4294.74,1193.22 4286.38,1191.25 Z"
         style="fill:none;stroke:#f9e13a;stroke-width:2.5;stroke-linecap:butt;stroke-linejoin:miter;stroke-miterlimit:10;stroke-dasharray:none;stroke-opacity:1"
         id="path96" /><path
         d="M 5431.12,1391.96 C 5230.52,1188.25 5026.18,1024.54 4822.61,905.25 4403.8,659.84 4119.63,673.961 4107.8,674.672 c -4.6,-0.57 -445.25,-39.281 -944.28,279.707 l -2.36,-3.481 2.84,-2.679 c 496.87,-316.117 939.62,-279.078 944.06,-278.61 11.79,-0.629 296.52,-14.949 716.74,231.282 204.13,119.549 408.97,283.619 608.75,487.719 -0.09,1.38 -2.43,3.35 -2.43,3.35"
         style="fill:#fad71f;fill-opacity:1;fill-rule:nonzero;stroke:none"
         id="path98" /><path
         d="M 5431.12,1391.96 C 5230.52,1188.25 5026.18,1024.54 4822.61,905.25 4403.8,659.84 4119.63,673.961 4107.8,674.672 c -4.6,-0.57 -445.25,-39.281 -944.28,279.707 l -2.36,-3.481 2.84,-2.679 c 496.87,-316.117 939.62,-279.078 944.06,-278.61 11.79,-0.629 296.52,-14.949 716.74,231.282 204.13,119.549 408.97,283.619 608.75,487.719 -0.09,1.38 -2.43,3.35 -2.43,3.35 z"
         style="fill:none;stroke:#fad71f;stroke-width:2.5;stroke-linecap:butt;stroke-linejoin:miter;stroke-miterlimit:4;stroke-dasharray:none;stroke-opacity:1"
         id="path100" /><path
         d="m 4197.09,932.48 0.04,-0.832 -0.07,0.661 c -6.54,-1.59 -539.19,-126.778 -1150.88,111.791 -0.3,0 -0.66,-0.18 -0.88,-0.42 -0.34,-0.46 -0.34,-1.05 -0.04,-1.46 3.8,-2.37 7.55,-4.74 11.28,-7.17 608.07,-232.87 1135.1,-108.839 1141.56,-107.23 v 0.141 c 17.45,2.16 656.61,90.959 1413.47,922.109 l -3.56,3.07 C 4846.96,1017.36 4205.42,933.441 4197.09,932.48"
         style="fill:#fadc2a;fill-opacity:1;fill-rule:nonzero;stroke:none"
         id="path102" /><path
         d="m 4197.09,932.48 0.04,-0.832 -0.07,0.661 c -6.54,-1.59 -539.19,-126.778 -1150.88,111.791 -0.3,0 -0.66,-0.18 -0.88,-0.42 -0.34,-0.46 -0.34,-1.05 -0.04,-1.46 3.8,-2.37 7.55,-4.74 11.28,-7.17 608.07,-232.87 1135.1,-108.839 1141.56,-107.23 v 0.141 c 17.45,2.16 656.61,90.959 1413.47,922.109 l -3.56,3.07 C 4846.96,1017.36 4205.42,933.441 4197.09,932.48 Z"
         style="fill:none;stroke:#fadc2a;stroke-width:2.5;stroke-linecap:butt;stroke-linejoin:miter;stroke-miterlimit:10;stroke-dasharray:none;stroke-opacity:1"
         id="path104" /><path
         d="m 4375.47,1449.93 0.83,-2.33 -0.9,2.06 c -9.79,-4.54 -749.39,-339.19 -1622.53,-278.11 l 0.08,-0.02 c 0,0 -19.21,0.7 -37.86,1.29 -0.39,-0.1 -0.7,-0.4 -0.79,-0.81 -0.15,-0.58 0.14,-1.17 0.7,-1.42 8.94,-1.94 17.92,-3.95 26.85,-6.13 879.85,-64.57 1626.99,273.54 1636.81,278.08 l -0.08,0.17 c 16.92,6.39 729.83,278.3 1427.51,1055.47 l -5.91,5.05 C 5099.62,1723.03 4383.97,1453.06 4375.47,1449.93"
         style="fill:#f9e13a;fill-opacity:1;fill-rule:nonzero;stroke:none"
         id="path106" /><path
         d="m 4375.47,1449.93 0.83,-2.33 -0.9,2.06 c -9.79,-4.54 -749.39,-339.19 -1622.53,-278.11 l 0.08,-0.02 c 0,0 -19.21,0.7 -37.86,1.29 -0.39,-0.1 -0.7,-0.4 -0.79,-0.81 -0.15,-0.58 0.14,-1.17 0.7,-1.42 8.94,-1.94 17.92,-3.95 26.85,-6.13 879.85,-64.57 1626.99,273.54 1636.81,278.08 l -0.08,0.17 c 16.92,6.39 729.83,278.3 1427.51,1055.47 l -5.91,5.05 C 5099.62,1723.03 4383.97,1453.06 4375.47,1449.93 Z"
         style="fill:none;stroke:#f9e13a;stroke-width:2.5;stroke-linecap:butt;stroke-linejoin:miter;stroke-miterlimit:10;stroke-dasharray:none;stroke-opacity:1"
         id="path108" /><path
         d="m 4514.02,1828.94 c 8.72,4.62 448.21,242.33 954.45,666.53 l -6.78,7.68 C 4955,2078.47 4515.18,1841.05 4509.04,1837.79 l 1.2,-2.24 -1.16,2.01 c -12.26,-7.15 -903.4,-514.06 -1976.51,-616.76 -35.51,-4.12 -73.03,-8.18 -111.07,-11.97 -0.35,-0.28 -0.6,-0.62 -0.6,-1.07 0.03,-0.47 0.31,-0.86 0.68,-1.09 2.62,-0.08 5.24,-0.16 7.89,-0.3 10.3,-0.44 21.05,-1.27 31.6,-1.93 1107.6,86.28 2040.54,617 2053.07,624.24 l -0.12,0.26"
         style="fill:#faee7e;fill-opacity:1;fill-rule:nonzero;stroke:none"
         id="path110" /><path
         d="m 4514.02,1828.94 c 8.72,4.62 448.21,242.33 954.45,666.53 l -6.78,7.68 C 4955,2078.47 4515.18,1841.05 4509.04,1837.79 l 1.2,-2.24 -1.16,2.01 c -12.26,-7.15 -903.4,-514.06 -1976.51,-616.76 -35.51,-4.12 -73.03,-8.18 -111.07,-11.97 -0.35,-0.28 -0.6,-0.62 -0.6,-1.07 0.03,-0.47 0.31,-0.86 0.68,-1.09 2.62,-0.08 5.24,-0.16 7.89,-0.3 10.3,-0.44 21.05,-1.27 31.6,-1.93 1107.6,86.28 2040.54,617 2053.07,624.24 z"
         style="fill:none;stroke:#faee7e;stroke-width:2.5;stroke-linecap:butt;stroke-linejoin:miter;stroke-miterlimit:10;stroke-dasharray:none;stroke-opacity:1"
         id="path112" /><path
         d="m 2051.66,1226.39 c -192.42,23.23 -386.36,65.04 -577.78,131.21 -154.73,53.54 -302.08,120.94 -442.22,201.6 l -4.92,-8.07 c 140.7,-80.99 288.7,-148.7 444.13,-202.45 179.49,-61.99 361.18,-102.47 541.79,-126.55 8.68,-0.86 17.38,-1.67 25.4,-2.47 2.75,-0.25 20.79,-0.46 23.35,-0.7 5.89,1.24 11.83,2.53 17.79,3.86 0.51,0.2 0.83,0.8 0.7,1.35 -0.05,0.29 -0.22,0.6 -0.49,0.77 -4.14,0.49 -23.61,0.89 -27.75,1.45"
         style="fill:#fbf18d;fill-opacity:1;fill-rule:nonzero;stroke:none"
         id="path114" /><path
         d="m 2051.66,1226.39 c -192.42,23.23 -386.36,65.04 -577.78,131.21 -154.73,53.54 -302.08,120.94 -442.22,201.6 l -4.92,-8.07 c 140.7,-80.99 288.7,-148.7 444.13,-202.45 179.49,-61.99 361.18,-102.47 541.79,-126.55 8.68,-0.86 17.38,-1.67 25.4,-2.47 2.75,-0.25 20.79,-0.46 23.35,-0.7 5.89,1.24 11.83,2.53 17.79,3.86 0.51,0.2 0.83,0.8 0.7,1.35 -0.05,0.29 -0.22,0.6 -0.49,0.77 -4.14,0.49 -23.61,0.89 -27.75,1.45 z"
         style="fill:none;stroke:#fcec96;stroke-width:2.5;stroke-linecap:butt;stroke-linejoin:miter;stroke-miterlimit:10;stroke-dasharray:none;stroke-opacity:1"
         id="path116" /><path
         d="m 4468.9,1700.19 c 14,6.68 568.73,272.37 1142.62,804.4 l -6.59,6.66 C 5028.62,1977.1 4471.73,1711.91 4464.52,1708.52 l 1.08,-2.37 -1.12,2.1 c -11.49,-6.28 -863.43,-461 -1878.53,-501.91 -14.47,-0.97 -36.18,-2.58 -56.39,-4.49 v -0.04 c -0.21,0 -0.43,0 -0.6,-0.06 -0.44,-0.12 -0.75,-0.48 -0.83,-0.91 -0.14,-0.56 0.18,-1.08 0.66,-1.3 9.93,-1.11 19.99,-2.35 29.97,-3.51 1029.57,33.79 1898.59,497.67 1910.26,503.92 l -0.12,0.24"
         style="fill:#faed70;fill-opacity:1;fill-rule:nonzero;stroke:none"
         id="path118" /><path
         d="m 4468.9,1700.19 c 14,6.68 568.73,272.37 1142.62,804.4 l -6.59,6.66 C 5028.62,1977.1 4471.73,1711.91 4464.52,1708.52 l 1.08,-2.37 -1.12,2.1 c -11.49,-6.28 -863.43,-461 -1878.53,-501.91 -14.47,-0.97 -36.18,-2.58 -56.39,-4.49 v -0.04 c -0.21,0 -0.43,0 -0.6,-0.06 -0.44,-0.12 -0.75,-0.48 -0.83,-0.91 -0.14,-0.56 0.18,-1.08 0.66,-1.3 9.93,-1.11 19.99,-2.35 29.97,-3.51 1029.57,33.79 1898.59,497.67 1910.26,503.92 z"
         style="fill:none;stroke:#faed70;stroke-width:2.5;stroke-linecap:butt;stroke-linejoin:miter;stroke-miterlimit:10;stroke-dasharray:none;stroke-opacity:1"
         id="path120" /><path
         d="m 4423.76,1571.27 -0.05,0.16 c 14.87,6.67 667.22,301.47 1294.52,935.94 l -6.57,5.57 C 5082.38,1876.65 4428.03,1582.76 4419.93,1579.19 l 0.67,-1.58 -0.63,1.3 c -10.64,-5.31 -804.29,-398.07 -1746.35,-387.73 l -0.13,-0.15 c 0,0 -28.33,0.32 -51.91,-0.14 l -3.74,-0.21 c -0.39,-0.17 -0.66,-0.5 -0.75,-0.95 -0.04,-0.58 0.23,-1.05 0.71,-1.25 11.46,-1.81 22.96,-3.66 34.46,-5.61 953.7,-16.59 1760.85,382.98 1771.5,388.4"
         style="fill:#f9eb66;fill-opacity:1;fill-rule:nonzero;stroke:none"
         id="path122" /><path
         d="m 4423.76,1571.27 -0.05,0.16 c 14.87,6.67 667.22,301.47 1294.52,935.94 l -6.57,5.57 C 5082.38,1876.65 4428.03,1582.76 4419.93,1579.19 l 0.67,-1.58 -0.63,1.3 c -10.64,-5.31 -804.29,-398.07 -1746.35,-387.73 l -0.13,-0.15 c 0,0 -28.33,0.32 -51.91,-0.14 l -3.74,-0.21 c -0.39,-0.17 -0.66,-0.5 -0.75,-0.95 -0.04,-0.58 0.23,-1.05 0.71,-1.25 11.46,-1.81 22.96,-3.66 34.46,-5.61 953.7,-16.59 1760.85,382.98 1771.5,388.4 z"
         style="fill:none;stroke:#f9eb66;stroke-width:2.5;stroke-linecap:butt;stroke-linejoin:miter;stroke-miterlimit:10;stroke-dasharray:none;stroke-opacity:1"
         id="path124" /><path
         d="m 4895.89,1487.02 42.5,200.49 H 1482.53 l -42.37,-200.49 h 3455.73"
         style="fill:#ffffff;fill-opacity:1;fill-rule:nonzero;stroke:none"
         id="path126" /><path
         d="m 4895.89,1487.02 42.5,200.49 H 1482.53 l -42.37,-200.49 z"
         style="fill:none;stroke:#ffffff;stroke-width:10;stroke-linecap:butt;stroke-linejoin:miter;stroke-miterlimit:10;stroke-dasharray:none;stroke-opacity:1"
         id="path128" /><path
         d="m 5312.16,1961.4 c 0,0 46.39,212.39 47,214.41 H 5064.8 c 0,-1.35 -61.02,-281.92 -61.02,-283.22 0.65,0 75.47,0 75.47,0 0.61,0 46.33,211.72 46.33,211.72 h 142.91 c 0,0 -45.02,-212.41 -46.29,-213.79 1.27,0 217.62,0 217.62,0 L 5411.5,1759.1 c 0,0 -215.8,0 -216.47,0 0,-1.39 -43.57,-199.95 -43.57,-199.95 0,0 -162.17,0 -163.52,0 0,-0.64 -14.59,-71.47 -15.19,-72.13 h 240.8 c 0,0.66 43.11,200.49 43.11,200.49 0,0 215.05,0 216.32,0 0,0.69 56.98,272.56 56.98,273.89 h -217.8"
         style="fill:#ee2629;fill-opacity:1;fill-rule:nonzero;stroke:none"
         id="path130" /><path
         d="m 5312.16,1961.4 c 0,0 46.39,212.39 47,214.41 H 5064.8 c 0,-1.35 -61.02,-281.92 -61.02,-283.22 0.65,0 75.47,0 75.47,0 0.61,0 46.33,211.72 46.33,211.72 h 142.91 c 0,0 -45.02,-212.41 -46.29,-213.79 1.27,0 217.62,0 217.62,0 L 5411.5,1759.1 c 0,0 -215.8,0 -216.47,0 0,-1.39 -43.57,-199.95 -43.57,-199.95 0,0 -162.17,0 -163.52,0 0,-0.64 -14.59,-71.47 -15.19,-72.13 h 240.8 c 0,0.66 43.11,200.49 43.11,200.49 0,0 215.05,0 216.32,0 0,0.69 56.98,272.56 56.98,273.89 z"
         style="fill:none;stroke:#ee2629;stroke-width:10;stroke-linecap:butt;stroke-linejoin:miter;stroke-miterlimit:10;stroke-dasharray:none;stroke-opacity:1"
         id="path132" /><path
         d="m 4779.37,1898.53 c 31.04,0 52.19,-21.17 52.19,-56.29 0,-5.89 -0.67,-11.19 -1.29,-17.13 h -134.3 c 13.97,44.29 43.77,73.42 83.4,73.42 z m 66.88,-263.99 17.1,78.73 c -29.14,-9.82 -57.55,-17.81 -93.9,-17.81 -42.4,0 -79.38,14.59 -81.41,65.63 h 218.32 c 8.03,26.09 12.6,52.04 12.6,75.85 0,72.85 -42.3,132.37 -132.93,132.37 -117.87,0 -189.3,-96.61 -189.3,-203.6 0,-91.35 60.82,-145.07 155.45,-145.07 38.46,0 68.81,6.01 94.07,13.9 z m -359.38,66.91 c -43.07,0 -72.05,18.48 -72.05,72.28 0,63.21 39.59,115.54 102.56,115.54 19.82,0 42.28,-5.97 64.92,-14.57 l 15.72,75.42 c -25.82,9.26 -56.21,15.92 -86.68,15.92 -103.84,0 -192.54,-77.44 -192.54,-196.96 0,-98.11 60.18,-144.44 146.92,-144.44 29.07,0 53.55,5.32 71.48,12.54 l 17.19,77.48 c -19.92,-7.32 -41.72,-13.21 -67.52,-13.21 z m -457.23,-70.81 36.4,167.81 c 14.58,67.62 47.67,90.82 82.02,90.82 44.34,0 49.67,-33.09 41.1,-70.87 l -39.71,-187.76 h 94.57 l 41.73,192.42 c 20.51,95.97 -23.86,146.25 -93.35,146.25 -38.34,0 -75.41,-15.2 -107.21,-48.95 l 8.64,39.02 h -88 l -70.68,-328.74 z m -340.09,94.57 c 0,33.17 29.04,51.85 77.37,51.85 9.23,0 29.79,-0.68 48.29,-3.33 l -3.85,-18.63 c -11.41,-39.15 -43.11,-65.62 -80.8,-65.62 -27.19,0 -41.01,13.25 -41.01,35.73 z m 91.33,242.12 c -43.66,0 -88.05,-9.9 -102.64,-14.53 l -15.78,-76.13 c 21.1,5.98 62.77,17.22 99.89,17.22 49.66,0 67.54,-15.2 67.54,-41.03 0,-4.59 0,-9.91 -1.38,-15.22 l -1.37,-6.59 c -23.77,2.59 -46.26,4.58 -56.95,4.58 -93.85,0 -169.32,-36.52 -169.32,-123.01 0,-56.23 43.71,-89.86 100.51,-89.86 40.39,0 74.77,15.72 97.33,42.29 l -7.37,-34.41 h 84.07 l 41.07,188.43 c 3.32,14 4.67,28.49 4.67,42.37 0,56.29 -31.15,105.89 -140.27,105.89 z m -458.79,-336.69 36.41,167.81 c 14.78,67.62 47.8,90.82 82.26,90.82 44.24,0 49.72,-33.09 41.01,-70.87 l -39.64,-187.76 h 94.48 l 41.69,192.42 c 20.57,95.97 -23.77,146.25 -93.3,146.25 -38.31,0 -75.38,-15.2 -107.07,-48.95 l 8.55,39.02 h -88.19 l -70.86,-328.74 z m -169.33,419.4 c -2.08,-29.76 19.74,-52.9 48.95,-52.9 32.34,0 55.51,23.14 57.5,52.9 2.03,29.8 -19.9,52.97 -48.9,52.97 -32.51,0 -55.64,-23.17 -57.55,-52.97 z m -13.4,-90.66 -70.74,-328.74 h 94.04 l 70.75,328.74 z m -267.3,-328.74 37.1,171.85 h 142.92 l 17.16,84.11 h -142.22 l 21.81,105.21 h 150.28 l 18.51,84.08 h -248.15 l -93.96,-445.25 z m -93.29,256.65 15.23,72.09 h -101.27 l 19.89,91.35 -98.64,-21.87 -61.51,-281.07 c -17.16,-79.47 26.49,-123.15 105.87,-123.15 16.52,0 44.32,3.29 64.28,9.9 l 15.82,72.17 c -15.82,-3.98 -35.78,-7.93 -52.94,-7.93 -27.16,0 -46.33,9.22 -39.67,42.3 l 31.12,146.21 z m -358.61,-160.07 c 0,-26.53 -32.42,-31.11 -59.55,-31.11 -34.38,0 -72.79,9.24 -93.3,15.88 l -15.91,-74.13 c 29.86,-7.22 67.5,-13.22 103.22,-13.22 84.74,0 153.5,31.75 153.5,111.22 0,103.12 -123.01,85.23 -123.01,130.93 0,20.5 19.82,27.79 50.92,27.79 29.75,0 71.52,-11.93 85.42,-15.89 l 15.85,74.71 c -28.49,8 -62.18,12.64 -92.67,12.64 -91.96,0 -147.51,-41.09 -147.51,-109.19 0,-100.47 123.04,-83.78 123.04,-129.63 z m -356.03,-106.58 c 103.91,0 174.06,75.47 189.91,174.47 16.58,98.78 -38.35,174.2 -142.22,174.2 -103.89,0 -174.06,-75.42 -189.93,-174.2 -16.56,-99 38.37,-174.47 142.24,-174.47 z m 8.67,76.1 c -37.76,0 -67.54,29.74 -53.63,98.37 13.9,68.35 47,98.1 84.66,98.1 37.72,0 67.54,-30.4 52.95,-98.1 -13.84,-67.89 -46.3,-98.37 -83.98,-98.37 z m -399.03,69.67 h 41.67 c 133.02,0 207.14,65.92 207.14,175.13 0,81.43 -57.58,134.35 -156.2,134.35 h -123.01 l -94,-445.25 h 95.24 z m 16.51,81.86 31.08,146.24 h 39.75 c 43.68,0 64.8,-17.88 64.8,-59.6 0,-53.58 -33.71,-86.64 -95.85,-86.64 h -39.78"
         style="fill:#050301;fill-opacity:1;fill-rule:nonzero;stroke:none"
         id="path134" /><path
         d="m 2776.68,917.398 h 263.04 L 3026.28,847 h -174.72 l -23.03,-110.078 h 156.15 L 2970.61,666.52 H 2813.8 l -26.24,-125.438 h 176.64 l -15.36,-70.402 h -176 -90.24 l 94.08,446.718"
         style="fill:#050301;fill-opacity:1;fill-rule:nonzero;stroke:none"
         id="path136" /><path
         d="m 3071.08,678.039 h 168.32 l -14.72,-70.398 h -168.32 l 14.72,70.398"
         style="fill:#050301;fill-opacity:1;fill-rule:nonzero;stroke:none"
         id="path138" /><path
         d="m 3381.48,917.398 h 246.41 L 3612.51,847 h -156.15 l -23.68,-110.078 h 149.11 L 3567.72,666.52 H 3417.96 L 3377,470.68 h -89.6 l 94.08,446.718"
         style="fill:#050301;fill-opacity:1;fill-rule:nonzero;stroke:none"
         id="path140" /><path
         d="m 3702.76,942.359 h 85.76 L 3770.6,860.43 h -85.76 z M 3671.4,800.281 h 85.76 L 3686.75,470.68 H 3601 l 70.4,329.601"
         style="fill:#050301;fill-opacity:1;fill-rule:nonzero;stroke:none"
         id="path142" /><path
         d="m 3839.72,752.91 c 2.13,9.82 3.84,18.891 5.12,27.211 1.28,8.32 2.34,15.039 3.2,20.16 h 83.84 l -5.76,-32.011 h 1.28 c 11.94,11.101 25.81,20.48 41.6,28.171 15.78,7.668 33.07,11.508 51.83,11.508 32.43,0 58.46,-9.379 78.09,-28.148 19.62,-18.781 29.43,-44.59 29.43,-77.442 0,-12.39 -1.27,-24.871 -3.83,-37.437 -2.56,-12.59 -4.92,-24 -7.04,-34.242 l -34.56,-160 h -85.76 l 32,155.511 c 2.12,11.098 4.25,22.297 6.4,33.61 2.13,11.301 3.2,23.129 3.2,35.519 0,13.649 -4.38,24.739 -13.12,33.282 -8.75,8.519 -19.95,12.796 -33.6,12.796 -14.94,0 -27.63,-3.199 -38.08,-9.597 -10.47,-6.41 -19.2,-14.621 -26.24,-24.641 -7.04,-10.039 -12.8,-21.23 -17.28,-33.601 -4.49,-12.379 -8,-24.75 -10.56,-37.118 l -35.2,-165.761 h -85.76 l 60.8,282.23"
         style="fill:#050301;fill-opacity:1;fill-rule:nonzero;stroke:none"
         id="path144" /><path
         d="m 4251.87,560.281 c 0,-11.531 4.48,-20.16 13.44,-25.922 8.96,-5.757 18.98,-8.64 30.09,-8.64 15.77,0 29.11,2.551 40,7.679 10.87,5.122 20.04,12.161 27.52,21.122 7.46,8.96 13.43,19.3 17.91,31.039 4.48,11.73 8.42,24.211 11.84,37.441 h -30.08 c -10.23,0 -21.87,-0.641 -34.88,-1.918 -13.02,-1.281 -25.07,-4.16 -36.15,-8.652 -11.11,-4.481 -20.49,-10.782 -28.17,-18.871 -7.67,-8.118 -11.52,-19.2 -11.52,-33.278 z m 127.36,-39.051 h -1.28 c -14.94,-18.781 -30.4,-33.171 -46.39,-43.191 C 4315.55,468.02 4295.6,463 4271.71,463 c -29.86,0 -54.29,8 -73.28,24 -18.98,16 -28.47,39.359 -28.47,70.07 0,27.309 6.71,48.739 20.15,64.328 13.44,15.571 30.3,27.293 50.57,35.204 20.25,7.89 42.24,12.796 65.92,14.718 23.67,1.922 45.53,2.871 65.59,2.871 h 30.09 c 1.27,4.7 2.01,9.391 2.23,14.079 0.21,4.691 0.33,9.39 0.33,14.089 0,8.09 -2.03,14.93 -6.09,20.481 -4.06,5.531 -9.28,10.012 -15.68,13.43 -6.4,3.421 -13.44,5.761 -21.12,7.039 -7.68,1.281 -15.35,1.933 -23.03,1.933 -19.21,0 -37.77,-2.242 -55.68,-6.722 -17.93,-4.481 -35.43,-10.778 -52.48,-18.879 l 12.16,68.48 c 18.33,6.399 36.79,11.301 55.36,14.719 18.55,3.398 37.44,5.109 56.64,5.109 16.64,0 32.63,-1.711 48,-5.109 15.36,-3.418 28.89,-9.078 40.63,-16.969 11.74,-7.891 21.23,-18.351 28.48,-31.351 7.25,-13.02 10.89,-29.129 10.89,-48.329 0,-7.25 -0.86,-16.742 -2.57,-28.472 -1.7,-11.739 -3.83,-24.539 -6.39,-38.399 -2.57,-13.879 -5.35,-28.59 -8.32,-44.16 -3,-15.59 -5.99,-30.828 -8.97,-45.762 -2.98,-14.937 -5.76,-29.226 -8.32,-42.878 -2.55,-13.668 -4.48,-25.598 -5.76,-35.84 h -72.32 l 8.96,50.55"
         style="fill:#050301;fill-opacity:1;fill-rule:nonzero;stroke:none"
         id="path146" /><path
         d="m 4586.6,752.91 c 2.13,9.82 3.83,18.891 5.11,27.211 1.28,8.32 2.35,15.039 3.21,20.16 h 83.83 l -5.76,-32.011 h 1.28 c 11.95,11.101 25.81,20.48 41.6,28.171 15.79,7.668 33.07,11.508 51.84,11.508 32.42,0 58.46,-9.379 78.09,-28.148 19.62,-18.781 29.43,-44.59 29.43,-77.442 0,-12.39 -1.27,-24.871 -3.84,-37.437 -2.56,-12.59 -4.91,-24 -7.04,-34.242 l -34.55,-160 h -85.76 l 31.99,155.511 c 2.13,11.098 4.26,22.297 6.41,33.61 2.13,11.301 3.2,23.129 3.2,35.519 0,13.649 -4.39,24.739 -13.13,33.282 -8.75,8.519 -19.95,12.796 -33.6,12.796 -14.93,0 -27.63,-3.199 -38.08,-9.597 -10.46,-6.41 -19.19,-14.621 -26.24,-24.641 -7.04,-10.039 -12.8,-21.23 -17.27,-33.601 -4.49,-12.379 -8.01,-24.75 -10.57,-37.118 L 4611.56,470.68 h -85.76 l 60.8,282.23"
         style="fill:#050301;fill-opacity:1;fill-rule:nonzero;stroke:none"
         id="path148" /><path
         d="m 5188.82,724.762 c -17.07,11.078 -37.97,16.636 -62.71,16.636 -17.07,0 -32.23,-3.628 -45.45,-10.878 -13.22,-7.258 -24.41,-16.86 -33.59,-28.809 -9.18,-11.941 -16.12,-25.5 -20.81,-40.629 -4.69,-15.152 -7.03,-30.402 -7.03,-45.762 0,-10.672 1.06,-21.129 3.2,-31.359 2.14,-10.25 5.87,-19.43 11.2,-27.52 5.33,-8.121 12.69,-14.621 22.09,-19.519 9.37,-4.91 21.52,-7.371 36.46,-7.371 10.67,0 22.19,1.39 34.57,4.16 12.37,2.781 24.1,6.937 35.2,12.48 l -9.59,-67.839 c -13.24,-6.391 -26.8,-10.551 -40.65,-12.481 -13.86,-1.91 -27.85,-2.871 -41.93,-2.871 -21.33,0 -40.62,3.422 -57.91,10.242 -17.29,6.817 -32,16.418 -44.16,28.789 -12.17,12.379 -21.55,27.309 -28.16,44.809 -6.63,17.492 -9.93,36.89 -9.93,58.242 0,28.578 4.59,55.25 13.77,80 9.16,24.738 22.17,46.289 39.04,64.637 16.84,18.34 37.33,32.64 61.43,42.883 24.1,10.238 50.88,15.347 80.33,15.347 16.22,0 31.68,-1.277 46.39,-3.84 14.73,-2.55 27.85,-5.539 39.38,-8.949 l -21.14,-70.398"
         style="fill:#050301;fill-opacity:1;fill-rule:nonzero;stroke:none"
         id="path150" /><path
         d="m 5446.73,667.801 c 1.28,7.679 1.93,15.129 1.93,22.398 0,17.922 -4.59,31.571 -13.76,40.961 -9.18,9.379 -22.73,14.082 -40.65,14.082 -26.45,0 -46.5,-7.262 -60.15,-21.762 -13.67,-14.511 -24.54,-33.082 -32.65,-55.679 z m -156.79,-58.879 c 0,-30.723 7.89,-52.281 23.68,-64.641 15.77,-12.383 38.4,-18.562 67.83,-18.562 17.92,0 35.21,2.133 51.85,6.39 16.64,4.27 33.05,10.032 49.27,17.289 l -10.88,-67.839 c -16.64,-5.118 -33.81,-9.508 -51.52,-13.118 -17.7,-3.621 -35.52,-5.441 -53.44,-5.441 -23.89,0 -45.54,2.871 -64.96,8.629 -19.41,5.769 -36.05,14.609 -49.92,26.57 -13.87,11.942 -24.64,26.981 -32.31,45.11 -7.69,18.14 -11.53,39.371 -11.53,63.691 0,25.602 4.69,50.441 14.08,74.559 9.38,24.101 22.41,45.531 39.05,64.312 16.64,18.777 36.47,33.82 59.51,45.129 23.05,11.301 48.01,16.949 74.88,16.949 20.48,0 38.94,-2.558 55.36,-7.668 16.42,-5.121 30.62,-12.91 42.56,-23.359 11.95,-10.461 21.13,-23.59 27.52,-39.363 6.41,-15.789 9.6,-34.137 9.6,-55.047 0,-12.371 -0.75,-24.641 -2.24,-36.793 -1.5,-12.16 -3.52,-24.438 -6.08,-36.797 h -232.31"
         style="fill:#050301;fill-opacity:1;fill-rule:nonzero;stroke:none"
         id="path152" /></g></g></svg>
