<svg width="302" height="160" viewBox="0 0 302 160" fill="none" xmlns="http://www.w3.org/2000/svg">
<rect x="1.5" y="1.5" width="299" height="157" fill="#3E42A3" stroke="white" stroke-width="3"/>
<path fill-rule="evenodd" clip-rule="evenodd" d="M8.14716 62.9917L75.0851 63.1622L48.5946 124.635C47.2694 125.243 45.6633 124.808 44.8391 123.552L7.64579 66.868C6.82157 65.6118 7.06225 63.9654 8.14716 62.9917ZM12.6396 60.0031L97.0068 4.64579C98.0379 3.96924 99.332 4.01019 100.301 4.64662L76.3765 60.1655L12.6396 60.0031ZM102.39 7.38077L79.6396 60.1738L137.126 60.3201L102.39 7.38077ZM138.802 63.3244L78.3482 63.1705L53.1245 121.704L137.492 66.3467C138.523 65.6702 139 64.4668 138.802 63.3244Z" fill="white"/>
<path d="M144 63L56.5 124H50L78.5 63H144Z" fill="#3E42A3"/>
<path d="M84.5693 115.838V142H75.7568V75.1719H100.404C107.717 75.1719 113.439 77.0384 117.57 80.7715C121.732 84.5046 123.812 89.4463 123.812 95.5967C123.812 102.084 121.778 107.087 117.708 110.605C113.669 114.094 107.87 115.838 100.312 115.838H84.5693ZM84.5693 108.632H100.404C105.117 108.632 108.727 107.53 111.236 105.327C113.745 103.093 115 99.8805 115 95.6885C115 91.7106 113.745 88.5283 111.236 86.1416C108.727 83.7549 105.285 82.5156 100.909 82.4238H84.5693V108.632ZM143.916 134.794H175.586V142H135.058V75.1719H143.916V134.794ZM230.205 75.1719V120.611C230.174 126.915 228.186 132.071 224.238 136.079C220.322 140.088 214.997 142.337 208.266 142.826L205.925 142.918C198.612 142.918 192.783 140.944 188.438 136.997C184.092 133.05 181.889 127.618 181.828 120.703V75.1719H190.549V120.428C190.549 125.262 191.88 129.026 194.542 131.719C197.204 134.381 200.998 135.712 205.925 135.712C210.912 135.712 214.722 134.381 217.354 131.719C220.016 129.057 221.347 125.308 221.347 120.474V75.1719H230.205ZM263.803 112.212C256.245 110.039 250.737 107.377 247.279 104.226C243.852 101.043 242.139 97.1266 242.139 92.4756C242.139 87.2126 244.235 82.8675 248.427 79.4404C252.649 75.9827 258.127 74.2539 264.858 74.2539C269.448 74.2539 273.533 75.1413 277.113 76.916C280.724 78.6908 283.508 81.1387 285.467 84.2598C287.456 87.3809 288.45 90.7926 288.45 94.4951H279.592C279.592 90.4561 278.307 87.2891 275.736 84.9941C273.166 82.6686 269.54 81.5059 264.858 81.5059C260.513 81.5059 257.117 82.4697 254.669 84.3975C252.252 86.2946 251.043 88.9414 251.043 92.3379C251.043 95.0612 252.19 97.3714 254.485 99.2686C256.811 101.135 260.743 102.849 266.281 104.409C271.85 105.97 276.195 107.699 279.316 109.596C282.468 111.462 284.794 113.65 286.293 116.159C287.823 118.668 288.588 121.621 288.588 125.018C288.588 130.434 286.477 134.779 282.254 138.053C278.031 141.296 272.386 142.918 265.317 142.918C260.728 142.918 256.444 142.046 252.466 140.302C248.488 138.527 245.413 136.11 243.24 133.05C241.098 129.99 240.027 126.517 240.027 122.631H248.886C248.886 126.67 250.37 129.868 253.338 132.224C256.337 134.549 260.33 135.712 265.317 135.712C269.968 135.712 273.533 134.763 276.012 132.866C278.49 130.969 279.729 128.383 279.729 125.109C279.729 121.835 278.582 119.311 276.287 117.536C273.992 115.731 269.831 113.956 263.803 112.212Z" fill="white"/>
</svg>
